<svg xmlns="http://www.w3.org/2000/svg" xmlns:xlink="http://www.w3.org/1999/xlink" version="1.1" x="0px" y="0px" viewBox="0 0 62 62" enable-background="new 0 0 62 62" xml:space="preserve"><path stroke="white" fill="white" d="M33.385,51.028c-1.754,0-3.508-0.232-5.217-0.689c-10.719-2.873-17.104-13.93-14.23-24.648  c2.08-7.768,8.57-13.541,16.533-14.707c0.475-0.07,0.928,0.162,1.152,0.576c0.225,0.416,0.166,0.928-0.146,1.281  c-1.84,2.082-3.139,4.504-3.859,7.197c-1.236,4.611-0.604,9.428,1.785,13.564c2.387,4.135,6.242,7.092,10.854,8.326  c2.35,0.631,4.811,0.773,7.207,0.426c0.469-0.068,0.928,0.162,1.152,0.576c0.225,0.416,0.166,0.928-0.146,1.281  C44.643,48.544,39.145,51.028,33.385,51.028z M27.879,13.888c-5.709,1.844-10.182,6.461-11.768,12.385  c-2.551,9.521,3.117,19.342,12.639,21.893c1.52,0.406,3.078,0.613,4.635,0.613c4.113,0,8.076-1.428,11.24-3.988  c-1.668-0.021-3.332-0.252-4.953-0.688c-5.191-1.391-9.531-4.721-12.219-9.375c-2.688-4.656-3.402-10.08-2.01-15.271  C25.977,17.46,26.793,15.597,27.879,13.888z"/></svg>