<svg xmlns="http://www.w3.org/2000/svg" xmlns:xlink="http://www.w3.org/1999/xlink" version="1.1" x="0px" y="0px" viewBox="0 0 62 62" enable-background="new 0 0 62 62" xml:space="preserve"><path stroke="white" fill="white" d="M43.46,46.835H15.599c-4.859,0-8.813-3.953-8.813-8.813c0-3.453,1.969-6.521,5.063-7.971  c1.109-3.725,4.498-6.279,8.438-6.279c0.398,0,0.801,0.029,1.203,0.086c1.361-5.102,5.959-8.694,11.34-8.694  c5.166,0,9.646,3.319,11.189,8.175c6.223,0.293,11.195,5.447,11.195,11.74C55.214,41.562,49.94,46.835,43.46,46.835z M20.286,26.023  c-3.08,0-5.707,2.096-6.393,5.096l-0.133,0.58l-0.553,0.217c-2.535,0.994-4.172,3.391-4.172,6.107c0,3.619,2.943,6.563,6.563,6.563  H43.46c5.24,0,9.504-4.264,9.504-9.506c0-5.24-4.264-9.504-9.504-9.504l-1.18,0.041l-0.213-0.893  c-1.018-4.303-4.816-7.309-9.238-7.309c-4.668,0-8.607,3.346-9.365,7.953l-0.203,1.24l-1.209-0.338  C21.462,26.107,20.868,26.023,20.286,26.023z"/></svg>