<svg xmlns="http://www.w3.org/2000/svg" xmlns:xlink="http://www.w3.org/1999/xlink" version="1.1" x="0px" y="0px" viewBox="0 0 62 62" enable-background="new 0 0 62 62" xml:space="preserve"><path d="M39.144,27.56c-1.541-4.855-6.021-8.174-11.188-8.174c-5.381,0-9.979,3.592-11.34,8.693  c-0.404-0.057-0.805-0.086-1.205-0.086c-3.938,0-7.328,2.555-8.436,6.281c-3.096,1.449-5.064,4.518-5.064,7.969  c0,4.859,3.953,8.813,8.813,8.813h27.861c6.482,0,11.756-5.273,11.756-11.754C50.341,33.007,45.368,27.853,39.144,27.56z   M38.585,48.806H10.724c-3.617,0-6.563-2.943-6.563-6.563c0-2.715,1.639-5.113,4.172-6.105l0.555-0.217l0.133-0.58  c0.686-3.002,3.313-5.098,6.391-5.098c0.582,0,1.176,0.084,1.768,0.248l1.207,0.338l0.205-1.238  c0.756-4.609,4.695-7.955,9.365-7.955c4.422,0,8.219,3.006,9.238,7.311l0.211,0.893l1.18-0.041c5.242,0,9.506,4.262,9.506,9.504  C48.091,44.542,43.827,48.806,38.585,48.806z"/><path d="M59.952,30.11c-0.223-0.416-0.682-0.648-1.15-0.578c-1.359,0.199-2.752,0.115-4.084-0.24  c-2.613-0.701-4.797-2.375-6.148-4.719c-1.352-2.342-1.713-5.07-1.012-7.684c0.408-1.525,1.145-2.896,2.188-4.074  c0.313-0.354,0.371-0.865,0.146-1.281c-0.225-0.414-0.684-0.646-1.152-0.578c-4.896,0.717-8.889,4.266-10.168,9.043  c-0.146,0.549-0.242,1.102-0.313,1.654c0.939,1.025,1.734,2.197,2.342,3.492c-0.289-1.471-0.268-3.021,0.145-4.564  c0.787-2.938,2.828-5.309,5.494-6.555c-0.355,0.725-0.643,1.486-0.855,2.281c-0.855,3.193-0.416,6.529,1.236,9.391  c1.654,2.863,4.322,4.91,7.516,5.768c0.572,0.152,1.152,0.266,1.738,0.336c-1.389,0.863-2.99,1.367-4.635,1.486  c0.332,0.699,0.609,1.432,0.822,2.188c2.971-0.373,5.734-1.809,7.744-4.086C60.12,31.036,60.179,30.524,59.952,30.11z"/></svg>