<svg xmlns="http://www.w3.org/2000/svg" xmlns:xlink="http://www.w3.org/1999/xlink" version="1.1" x="0px" y="0px" viewBox="0 0 62 62" enable-background="new 0 0 62 62" xml:space="preserve"><path d="M37.48,27.914c-1.541-4.856-6.021-8.174-11.188-8.174c-5.381,0-9.979,3.592-11.34,8.693  c-0.402-0.058-0.805-0.086-1.205-0.086c-3.938,0-7.328,2.553-8.436,6.28c-3.096,1.45-5.064,4.518-5.064,7.97  c0,4.859,3.955,8.813,8.813,8.813h27.861c6.482,0,11.756-5.273,11.756-11.755C48.678,33.36,43.705,28.205,37.48,27.914z   M36.922,49.16H9.061c-3.617,0-6.563-2.944-6.563-6.563c0-2.716,1.639-5.113,4.172-6.107l0.555-0.217l0.133-0.58  c0.686-3,3.314-5.096,6.391-5.096c0.582,0,1.176,0.083,1.768,0.248l1.209,0.337l0.203-1.238c0.758-4.608,4.695-7.954,9.365-7.954  c4.422,0,8.221,3.006,9.24,7.31l0.211,0.892l1.178-0.041c5.242,0,9.506,4.263,9.506,9.504C46.428,44.896,42.164,49.16,36.922,49.16z  "/><path d="M47.551,17.411c-4.068,0-7.377,3.311-7.377,7.379c0,0.433,0.043,0.855,0.115,1.268c0.924,0.227,1.807,0.551,2.645,0.949  c-0.324-0.672-0.51-1.422-0.51-2.217c0-2.828,2.299-5.129,5.127-5.129c2.83,0,5.131,2.301,5.131,5.129  c0,2.828-2.301,5.129-5.131,5.129c-0.203,0-0.404-0.016-0.602-0.039c0.652,0.668,1.234,1.402,1.742,2.19  c3.529-0.551,6.24-3.601,6.24-7.281C54.932,20.721,51.621,17.411,47.551,17.411z"/><rect x="46.426" y="10.59" width="2.25" height="4.337"/><rect x="36.877" y="15.158" transform="matrix(0.7072 0.707 -0.707 0.7072 22.9437 -22.838)" width="4.339" height="2.249"/><rect x="53.891" y="32.171" transform="matrix(-0.7071 -0.7072 0.7072 -0.7071 72.1507 96.4815)" width="4.337" height="2.251"/><rect x="57.412" y="23.664" width="4.34" height="2.25"/><rect x="54.934" y="14.113" transform="matrix(0.7073 0.7069 -0.7069 0.7073 27.917 -34.8625)" width="2.25" height="4.338"/></svg>