<svg xmlns="http://www.w3.org/2000/svg" xmlns:xlink="http://www.w3.org/1999/xlink" version="1.1" x="0px" y="0px" viewBox="0 0 62 62" enable-background="new 0 0 62 62" xml:space="preserve"><path stroke="white" fill="white" d="M44.018,18.707c-1.542-4.855-6.022-8.174-11.188-8.174c-5.382,0-9.979,3.592-11.341,8.693  c-0.403-0.057-0.805-0.086-1.204-0.086c-3.938,0-7.328,2.553-8.437,6.279c-3.094,1.451-5.063,4.518-5.063,7.971  c0,4.859,3.953,8.813,8.813,8.813h27.861c6.481,0,11.755-5.273,11.755-11.756C55.214,24.154,50.242,18.998,44.018,18.707z   M43.459,39.953H15.598c-3.619,0-6.563-2.945-6.563-6.563c0-2.717,1.638-5.113,4.172-6.107l0.554-0.217l0.132-0.58  c0.686-3,3.314-5.096,6.392-5.096c0.581,0,1.175,0.084,1.767,0.248l1.208,0.338l0.204-1.24c0.757-4.607,4.696-7.953,9.366-7.953  c4.421,0,8.219,3.006,9.238,7.309l0.211,0.893l1.18-0.041c5.241,0,9.505,4.264,9.505,9.504  C52.964,35.689,48.701,39.953,43.459,39.953z"/><path stroke="white" fill="white" d="M15.272,48.637c-0.497,1.367,0.186,2.258,1.282,2.656c1.097,0.4,2.193,0.156,2.69-1.211  c0.498-1.365-0.253-5.482-0.253-5.482S15.769,47.271,15.272,48.637z"/><path stroke="white" fill="white" d="M26.858,48.637c-0.498,1.367,0.185,2.258,1.282,2.656c1.097,0.4,2.192,0.156,2.69-1.211  c0.498-1.365-0.253-5.482-0.253-5.482S27.355,47.271,26.858,48.637z"/><path stroke="white" fill="white" d="M38.444,48.637c-0.498,1.367,0.185,2.258,1.281,2.656c1.098,0.4,2.193,0.156,2.691-1.211  c0.496-1.365-0.254-5.482-0.254-5.482S38.941,47.271,38.444,48.637z"/></svg>