<svg xmlns="http://www.w3.org/2000/svg" xmlns:xlink="http://www.w3.org/1999/xlink" version="1.1" x="0px" y="0px" viewBox="0 0 62 62" enable-background="new 0 0 62 62" xml:space="preserve"><path d="M47.618,39.298l-4.594-2.654l3.959-1.568c0.578-0.229,0.861-0.883,0.633-1.461c-0.23-0.578-0.885-0.861-1.461-0.631  l-5.617,2.225l-7.287-4.207l7.287-4.207l5.617,2.225c0.137,0.055,0.275,0.078,0.414,0.078c0.447,0,0.871-0.268,1.047-0.711  c0.229-0.576-0.055-1.23-0.633-1.459l-3.959-1.568l4.594-2.652c0.539-0.311,0.723-0.998,0.412-1.537s-1-0.723-1.537-0.412  l-4.594,2.654l0.621-4.215c0.09-0.613-0.334-1.186-0.949-1.277c-0.611-0.092-1.186,0.334-1.277,0.949l-0.881,5.979l-7.287,4.207  v-8.416l4.734-3.752c0.488-0.387,0.57-1.094,0.184-1.58c-0.385-0.488-1.094-0.57-1.58-0.184l-3.338,2.645V12.46  c0-0.621-0.504-1.125-1.125-1.125s-1.125,0.504-1.125,1.125v5.307l-3.338-2.645c-0.486-0.387-1.195-0.305-1.58,0.184  c-0.387,0.486-0.305,1.193,0.182,1.58l4.736,3.752v8.416l-7.287-4.207l-0.883-5.979c-0.09-0.615-0.668-1.041-1.277-0.949  c-0.615,0.092-1.039,0.664-0.949,1.277l0.623,4.213l-4.596-2.652c-0.537-0.311-1.227-0.127-1.537,0.412  c-0.311,0.537-0.127,1.225,0.412,1.535l4.596,2.654l-3.961,1.568c-0.576,0.229-0.859,0.883-0.631,1.461  c0.176,0.441,0.6,0.711,1.047,0.711c0.139,0,0.277-0.025,0.414-0.08l5.617-2.225l7.287,4.207l-7.287,4.207l-5.617-2.225  c-0.576-0.23-1.23,0.053-1.459,0.631s0.053,1.232,0.631,1.461l3.959,1.568l-4.596,2.654c-0.539,0.311-0.723,0.998-0.412,1.535  c0.209,0.361,0.588,0.563,0.975,0.563c0.191,0,0.385-0.047,0.563-0.15l4.596-2.652l-0.621,4.215  c-0.09,0.613,0.334,1.186,0.949,1.277c0.057,0.008,0.111,0.012,0.166,0.012c0.549,0,1.029-0.402,1.111-0.961l0.881-5.979  l7.287-4.207v8.414l-4.736,3.752c-0.486,0.385-0.568,1.094-0.182,1.58c0.221,0.281,0.551,0.426,0.881,0.426  c0.246,0,0.492-0.078,0.699-0.242l3.338-2.645v5.305c0,0.621,0.504,1.125,1.125,1.125s1.125-0.504,1.125-1.125v-5.305l3.338,2.645  c0.207,0.164,0.453,0.242,0.697,0.242c0.332,0,0.662-0.145,0.883-0.426c0.387-0.486,0.305-1.195-0.184-1.58l-4.734-3.752V32.95  l7.285,4.207l0.883,5.977c0.082,0.559,0.563,0.961,1.111,0.961c0.055,0,0.111-0.004,0.166-0.012  c0.615-0.092,1.039-0.662,0.949-1.277l-0.621-4.213l4.594,2.652c0.178,0.104,0.371,0.15,0.563,0.15c0.389,0,0.768-0.201,0.975-0.563  C48.341,40.296,48.157,39.608,47.618,39.298z"/></svg>